<?xml version="1.0" encoding="UTF-8" standalone="no"?><!DOCTYPE svg PUBLIC "-//W3C//DTD SVG 1.1//EN" "http://www.w3.org/Graphics/SVG/1.1/DTD/svg11.dtd"><svg width="100%" height="100%" viewBox="0 0 244 38" version="1.1" xmlns="http://www.w3.org/2000/svg" xmlns:xlink="http://www.w3.org/1999/xlink" xml:space="preserve" xmlns:serif="http://www.serif.com/" style="fill-rule:evenodd;clip-rule:evenodd;stroke-linejoin:round;stroke-miterlimit:2;"><g><g><path d="M22.697,8.607l5.737,13.312l-2.175,0l-4.181,-10.912l0.637,-2.4l-0.019,0Zm-4.031,12.056c-0.094,0.244 -0.113,0.469 -0.038,0.637c0.056,0.169 0.169,0.3 0.319,0.394c0.15,0.094 0.3,0.15 0.45,0.15l0.169,0l0,0.188l-3.844,0l0,-0.188l0.169,0c0.281,0 0.581,-0.094 0.9,-0.281c0.3,-0.188 0.562,-0.488 0.769,-0.9l1.144,0l-0.037,0Zm4.031,-12.056l0.131,1.631l-4.688,11.738l-1.2,0l4.819,-11.269c0.019,-0.019 0.056,-0.113 0.131,-0.3c0.075,-0.169 0.169,-0.375 0.262,-0.619c0.094,-0.244 0.188,-0.469 0.263,-0.694c0.075,-0.225 0.112,-0.394 0.112,-0.506l0.169,0l0,0.019Zm2.419,8.531l0,0.638l-5.756,0l0,-0.638l5.756,0Zm0.656,3.525l2.119,0c0.188,0.431 0.45,0.731 0.75,0.9c0.319,0.188 0.6,0.281 0.9,0.281l0.15,0l0,0.188l-4.8,0l0,-0.188l0.169,0c0.244,0 0.45,-0.094 0.637,-0.319c0.188,-0.206 0.206,-0.488 0.075,-0.863Z" style="fill-rule:nonzero;"/></g><g><path d="M33.366,8.907l2.569,0c0.563,0 1.088,0.075 1.575,0.225c0.488,0.15 0.9,0.375 1.237,0.675c0.356,0.3 0.619,0.656 0.806,1.106c0.188,0.431 0.3,0.956 0.3,1.537c0,0.581 -0.131,1.125 -0.394,1.669c-0.263,0.544 -0.619,0.994 -1.087,1.331c-0.469,0.356 -1.031,0.544 -1.669,0.562c0.281,0.094 0.544,0.3 0.825,0.581c0.281,0.281 0.506,0.562 0.713,0.844c0,0 0.094,0.131 0.244,0.356c0.15,0.225 0.356,0.506 0.581,0.844c0.244,0.337 0.469,0.656 0.712,0.975c0.244,0.319 0.469,0.6 0.637,0.806c0.263,0.3 0.506,0.544 0.75,0.769c0.244,0.206 0.506,0.375 0.788,0.487c0.281,0.113 0.6,0.169 0.938,0.169l0,0.188l-1.294,0c-0.619,0 -1.144,-0.075 -1.612,-0.244c-0.469,-0.15 -0.863,-0.375 -1.2,-0.637c-0.337,-0.262 -0.619,-0.562 -0.862,-0.881c-0.056,-0.094 -0.169,-0.244 -0.319,-0.488c-0.15,-0.244 -0.319,-0.506 -0.525,-0.806c-0.206,-0.3 -0.394,-0.619 -0.581,-0.9c-0.188,-0.3 -0.356,-0.562 -0.488,-0.788c-0.131,-0.225 -0.225,-0.356 -0.244,-0.431c-0.206,-0.337 -0.45,-0.637 -0.712,-0.881c-0.263,-0.244 -0.544,-0.375 -0.863,-0.375l0,-0.188l0.844,0c0.338,-0.019 0.675,-0.075 1.05,-0.169c0.356,-0.094 0.694,-0.3 1.012,-0.581c0.3,-0.281 0.544,-0.713 0.694,-1.275c0.038,-0.131 0.056,-0.281 0.075,-0.469c0.019,-0.188 0.019,-0.375 0.019,-0.581c-0.019,-0.863 -0.244,-1.537 -0.656,-2.006c-0.413,-0.469 -0.956,-0.731 -1.631,-0.769c-0.3,-0.019 -0.6,-0.019 -0.919,-0.019l-1.163,0c0,-0.019 -0.019,-0.075 -0.038,-0.169c-0.037,-0.113 -0.15,-0.488 -0.15,-0.488l0.037,0.019Zm0.244,0l0,13.125l-1.762,0l0,-13.125l1.762,0Zm-1.706,11.756l0,1.369l-1.5,0l0,-0.188l0.244,0c0.319,0 0.6,-0.113 0.825,-0.356c0.225,-0.225 0.356,-0.506 0.375,-0.825l0.056,0Zm0,-10.388l-0.056,0c-0.019,-0.319 -0.131,-0.6 -0.375,-0.825c-0.225,-0.225 -0.506,-0.356 -0.825,-0.356l-0.244,0l0,-0.188l1.5,0l0,1.369Zm1.65,10.388l0.056,0c0,0.319 0.112,0.6 0.356,0.825c0.244,0.225 0.525,0.337 0.844,0.337l0.225,0l0,0.188l-1.481,0l0,-1.369l0,0.019Z" style="fill-rule:nonzero;"/></g><g><path d="M46.266,8.907l0,13.125l-1.744,0l0,-13.125l1.744,0Zm-1.688,11.756l0,1.369l-1.5,0l0,-0.188l0.244,0c0.319,0 0.6,-0.113 0.825,-0.356c0.225,-0.225 0.356,-0.506 0.356,-0.825l0.075,0Zm0.019,-10.388l-0.075,0c-0.019,-0.319 -0.131,-0.6 -0.356,-0.825c-0.225,-0.225 -0.506,-0.356 -0.825,-0.356l-0.244,0l0,-0.188l1.5,0l0,1.369Zm1.612,10.388l0.056,0c0.019,0.319 0.131,0.6 0.375,0.825c0.225,0.225 0.506,0.337 0.844,0.337l0.244,0l0,0.188l-1.5,0l0,-1.369l-0.019,0.019Zm0,-10.388l0,-1.369l1.5,0l0,0.188l-0.244,0c-0.319,0 -0.6,0.112 -0.844,0.356c-0.225,0.225 -0.356,0.506 -0.375,0.825l-0.056,0l0.019,-0Z" style="fill-rule:nonzero;"/></g><g><path d="M50.953,8.626l11.25,11.55l0.188,2.119l-11.25,-11.531l-0.188,-2.138Zm0.056,12.075l0,1.331l-1.556,0l0,-0.188l0.356,0c0.319,0 0.581,-0.113 0.806,-0.337c0.225,-0.225 0.337,-0.488 0.337,-0.806l0.056,0Zm1.406,0c0,0.319 0.113,0.581 0.337,0.806c0.225,0.225 0.488,0.337 0.806,0.337l0.356,0l0,0.188l-1.556,0l0,-1.331l0.056,0Zm-1.462,-12.075l1.444,1.65l0.019,11.756l-1.462,0l0,-11.062c0,-0.656 -0.038,-1.219 -0.094,-1.669c-0.056,-0.45 -0.094,-0.675 -0.094,-0.675l0.188,0Zm11.419,0.281l0,10.988c0,0.431 0.019,0.825 0.037,1.181c0.038,0.375 0.056,0.656 0.094,0.881c0.038,0.225 0.056,0.337 0.056,0.337l-0.169,0l-1.462,-1.669l0,-11.719l1.444,0Zm1.5,0l0,0.188l-0.338,0c-0.319,0 -0.581,0.112 -0.806,0.338c-0.225,0.225 -0.337,0.487 -0.356,0.806l-0.056,0l0,-1.331l1.556,0Zm-4.462,-0l1.556,0l0,1.331l-0.038,0c-0.019,-0.319 -0.131,-0.6 -0.337,-0.806c-0.225,-0.225 -0.487,-0.338 -0.806,-0.338l-0.356,0l0,-0.188l-0.019,0Z" style="fill-rule:nonzero;"/></g><g><path d="M72.384,8.645c1.387,0 2.606,0.281 3.656,0.844c1.05,0.563 1.856,1.35 2.438,2.381c0.581,1.031 0.862,2.231 0.862,3.6c0,1.369 -0.281,2.569 -0.862,3.6c-0.581,1.031 -1.388,1.819 -2.438,2.381c-1.05,0.562 -2.269,0.844 -3.656,0.844c-1.388,0 -2.588,-0.281 -3.638,-0.844c-1.05,-0.562 -1.856,-1.35 -2.438,-2.381c-0.581,-1.031 -0.862,-2.231 -0.862,-3.6c0,-1.369 0.281,-2.569 0.862,-3.6c0.581,-1.031 1.388,-1.819 2.438,-2.381c1.05,-0.562 2.25,-0.844 3.638,-0.844Zm0,13.012c1.012,0 1.875,-0.262 2.625,-0.769c0.75,-0.506 1.312,-1.238 1.725,-2.156c0.412,-0.919 0.619,-2.006 0.619,-3.262c0,-1.256 -0.206,-2.325 -0.619,-3.263c-0.412,-0.919 -0.994,-1.65 -1.725,-2.156c-0.75,-0.506 -1.613,-0.769 -2.625,-0.769c-0.994,0 -1.856,0.263 -2.606,0.769c-0.75,0.506 -1.312,1.238 -1.725,2.156c-0.412,0.919 -0.619,2.006 -0.619,3.263c0,1.256 0.206,2.325 0.619,3.262c0.413,0.919 0.994,1.65 1.725,2.156c0.75,0.506 1.612,0.769 2.606,0.769Z" style="fill-rule:nonzero;"/></g><g><path d="M89.016,8.907l2.438,0c0.9,0 1.65,0.15 2.25,0.45c0.6,0.3 1.069,0.713 1.388,1.256c0.319,0.544 0.487,1.181 0.487,1.912c0,0.6 -0.094,1.144 -0.338,1.612c-0.225,0.469 -0.544,0.881 -0.919,1.2c-0.394,0.319 -0.825,0.562 -1.331,0.731c-0.487,0.15 -0.994,0.206 -1.537,0.15c-0.525,-0.056 -1.031,-0.225 -1.538,-0.506l0,-0.188c0,0 0.094,0.019 0.281,0.037c0.188,0.019 0.45,0.019 0.75,-0.019c0.3,-0.038 0.619,-0.113 0.956,-0.225c0.337,-0.131 0.656,-0.338 0.938,-0.637c0.3,-0.3 0.506,-0.694 0.656,-1.219c0.037,-0.15 0.075,-0.319 0.094,-0.525c0.019,-0.206 0.037,-0.412 0.019,-0.6c-0.019,-0.844 -0.244,-1.519 -0.675,-2.025c-0.431,-0.506 -1.031,-0.769 -1.819,-0.769l-1.912,0l-0.188,-0.638Zm0.281,0l0,13.125l-1.744,0l0,-13.125l1.744,0Zm-1.688,11.756l0,1.369l-1.5,0l0,-0.188l0.244,0c0.319,0 0.6,-0.113 0.825,-0.356c0.225,-0.225 0.356,-0.506 0.375,-0.825l0.056,0Zm0,-10.388l-0.056,0c0,-0.319 -0.112,-0.6 -0.356,-0.825c-0.244,-0.225 -0.525,-0.356 -0.844,-0.356l-0.225,0l-0.019,-0.188l1.5,0l0,1.369Zm1.631,10.388l0.056,0c0.019,0.319 0.131,0.6 0.375,0.825c0.225,0.225 0.506,0.337 0.844,0.337l0.244,0l0,0.188l-1.5,0l0,-1.369l-0.019,0.019Z" style="fill-rule:nonzero;"/></g><g><path d="M109.397,8.907l0,13.125l-1.744,0l0,-13.125l1.744,0Zm-8.888,0l0,13.125l-1.744,0l0,-13.125l1.744,0Zm7.312,6.3l0,0.637l-7.5,0l0,-0.637l7.5,0Zm-9,5.456l0,1.369l-1.5,0l0,-0.188l0.244,0c0.319,0 0.6,-0.113 0.825,-0.356c0.225,-0.225 0.356,-0.506 0.356,-0.825l0.075,0Zm0.019,-10.388l-0.075,0c-0.019,-0.319 -0.131,-0.6 -0.356,-0.825c-0.225,-0.225 -0.506,-0.356 -0.825,-0.356l-0.244,0l0,-0.188l1.5,0l0,1.369Zm1.612,10.388l0.056,0c0.019,0.319 0.131,0.6 0.375,0.825c0.225,0.225 0.506,0.337 0.844,0.337l0.244,0l0,0.188l-1.5,0l0,-1.369l-0.019,0.019Zm0,-10.388l0,-1.369l1.5,0l0,0.188l-0.244,0c-0.319,0 -0.6,0.112 -0.844,0.356c-0.225,0.225 -0.356,0.506 -0.375,0.825l-0.056,0l0.019,-0Zm7.256,10.388l0,1.369l-1.5,0l0,-0.188l0.244,0c0.319,0 0.6,-0.113 0.844,-0.356c0.244,-0.225 0.356,-0.506 0.356,-0.825l0.056,0Zm0,-10.388l-0.056,0c0,-0.319 -0.112,-0.6 -0.356,-0.825c-0.244,-0.225 -0.525,-0.356 -0.844,-0.356l-0.244,0l0,-0.188l1.5,0l0,1.369Zm1.631,10.388l0.056,0c0.019,0.319 0.131,0.6 0.356,0.825c0.225,0.225 0.506,0.337 0.844,0.337l0.244,0l0,0.188l-1.5,0l0,-1.369l0,0.019Zm0,-10.388l0,-1.369l1.5,0l0,0.188l-0.244,0c-0.319,0 -0.6,0.112 -0.844,0.356c-0.225,0.225 -0.356,0.506 -0.356,0.825l-0.056,0Z" style="fill-rule:nonzero;"/></g><g><path d="M119.597,8.645c1.387,0 2.606,0.281 3.656,0.844c1.05,0.563 1.856,1.35 2.438,2.381c0.581,1.031 0.862,2.231 0.862,3.6c0,1.369 -0.281,2.569 -0.862,3.6c-0.581,1.031 -1.388,1.819 -2.438,2.381c-1.05,0.562 -2.269,0.844 -3.656,0.844c-1.388,0 -2.588,-0.281 -3.638,-0.844c-1.05,-0.562 -1.856,-1.35 -2.438,-2.381c-0.581,-1.031 -0.862,-2.231 -0.862,-3.6c0,-1.369 0.281,-2.569 0.862,-3.6c0.581,-1.031 1.388,-1.819 2.438,-2.381c1.05,-0.562 2.25,-0.844 3.638,-0.844Zm0,13.012c1.012,0 1.875,-0.262 2.625,-0.769c0.75,-0.506 1.313,-1.238 1.725,-2.156c0.412,-0.919 0.619,-2.006 0.619,-3.262c0,-1.256 -0.206,-2.325 -0.619,-3.263c-0.413,-0.919 -0.994,-1.65 -1.725,-2.156c-0.75,-0.506 -1.612,-0.769 -2.625,-0.769c-0.994,0 -1.856,0.263 -2.606,0.769c-0.75,0.506 -1.312,1.238 -1.725,2.156c-0.412,0.919 -0.619,2.006 -0.619,3.263c0,1.256 0.206,2.325 0.619,3.262c0.413,0.919 0.994,1.65 1.725,2.156c0.75,0.506 1.612,0.769 2.606,0.769Z" style="fill-rule:nonzero;"/></g><g><path d="M133.828,8.964l0,13.069l-1.744,0l0,-13.069l1.744,0Zm4.744,-0.075l0,0.638l-11.231,0l0,-0.638l11.231,0Zm0,0.562l0,1.763l-0.188,-0.019l0,-0.281c0,-0.394 -0.131,-0.731 -0.394,-0.994c-0.263,-0.262 -0.581,-0.394 -0.975,-0.412l0,-0.056l1.556,0Zm0,-0.9l0,0.544l-2.287,-0.206c0.281,0 0.562,-0.019 0.881,-0.056c0.3,-0.037 0.581,-0.075 0.844,-0.131c0.263,-0.056 0.45,-0.094 0.562,-0.15Zm-6.431,12.113l0,1.369l-1.5,0l0,-0.188l0.244,0c0.319,0 0.6,-0.113 0.844,-0.356c0.225,-0.225 0.356,-0.506 0.356,-0.825l0.056,0Zm1.631,0l0.056,0c0.019,0.319 0.131,0.6 0.375,0.825c0.225,0.225 0.506,0.337 0.825,0.337l0.244,0l0,0.188l-1.5,0l0,-1.369l0,0.019Zm-4.875,-11.194l0,0.056c-0.413,0.019 -0.731,0.15 -0.994,0.412c-0.263,0.263 -0.375,0.581 -0.375,0.994l0,0.281l-0.188,0.019l0,-1.744l1.556,0l0,-0.019Zm-1.556,-0.919c0.131,0.056 0.319,0.094 0.562,0.15c0.262,0.056 0.544,0.094 0.862,0.131c0.319,0.037 0.6,0.056 0.863,0.056l-2.287,0.206l0,-0.544Z" style="fill-rule:nonzero;"/></g><g><path d="M146.634,8.645c1.387,0 2.606,0.281 3.656,0.844c1.05,0.563 1.856,1.35 2.438,2.381c0.581,1.031 0.862,2.231 0.862,3.6c0,1.369 -0.281,2.569 -0.862,3.6c-0.581,1.031 -1.388,1.819 -2.438,2.381c-1.05,0.562 -2.269,0.844 -3.656,0.844c-1.388,0 -2.588,-0.281 -3.638,-0.844c-1.05,-0.562 -1.856,-1.35 -2.438,-2.381c-0.581,-1.031 -0.862,-2.231 -0.862,-3.6c0,-1.369 0.281,-2.569 0.862,-3.6c0.581,-1.031 1.388,-1.819 2.438,-2.381c1.05,-0.562 2.25,-0.844 3.638,-0.844Zm0,13.012c1.012,0 1.875,-0.262 2.625,-0.769c0.75,-0.506 1.312,-1.238 1.725,-2.156c0.412,-0.919 0.619,-2.006 0.619,-3.262c0,-1.256 -0.206,-2.325 -0.619,-3.263c-0.412,-0.919 -0.994,-1.65 -1.725,-2.156c-0.75,-0.506 -1.613,-0.769 -2.625,-0.769c-0.994,0 -1.856,0.263 -2.606,0.769c-0.75,0.506 -1.312,1.238 -1.725,2.156c-0.412,0.919 -0.619,2.006 -0.619,3.263c0,1.256 0.206,2.325 0.619,3.262c0.412,0.919 0.994,1.65 1.725,2.156c0.75,0.506 1.613,0.769 2.606,0.769Z" style="fill-rule:nonzero;"/></g><g><path d="M159.366,8.645c0.206,0 0.469,0.019 0.731,0.037c0.281,0.019 0.562,0.056 0.825,0.094c0.281,0.037 0.525,0.094 0.75,0.131c0.225,0.038 0.375,0.094 0.487,0.131l-0.075,2.231l-0.169,0c0,-0.619 -0.225,-1.106 -0.656,-1.462c-0.431,-0.356 -0.975,-0.544 -1.631,-0.544c-0.694,0 -1.275,0.206 -1.706,0.6c-0.431,0.412 -0.656,0.881 -0.656,1.425c0,0.281 0.075,0.581 0.225,0.881c0.15,0.3 0.394,0.581 0.713,0.844l3.656,3.056c0.45,0.337 0.75,0.731 0.938,1.181c0.188,0.431 0.262,0.9 0.244,1.387c-0.019,1.106 -0.375,1.969 -1.088,2.644c-0.713,0.656 -1.669,0.994 -2.888,0.994c-0.394,0 -0.806,-0.038 -1.237,-0.113c-0.45,-0.075 -0.863,-0.188 -1.256,-0.356c-0.394,-0.169 -0.713,-0.356 -0.956,-0.619c-0.056,-0.225 -0.075,-0.506 -0.075,-0.825c0,-0.337 0.037,-0.675 0.112,-1.031c0.075,-0.356 0.15,-0.675 0.263,-0.938l0.169,0c-0.056,0.637 0.037,1.2 0.281,1.706c0.244,0.506 0.6,0.881 1.069,1.144c0.469,0.262 1.013,0.394 1.631,0.375c0.731,-0.038 1.331,-0.263 1.819,-0.694c0.487,-0.431 0.731,-0.994 0.731,-1.688c0,-0.375 -0.075,-0.712 -0.244,-1.012c-0.169,-0.3 -0.412,-0.562 -0.75,-0.806l-3.487,-2.944c-0.469,-0.356 -0.806,-0.769 -1.013,-1.256c-0.206,-0.469 -0.281,-0.956 -0.262,-1.425c0.019,-0.562 0.169,-1.088 0.431,-1.575c0.281,-0.488 0.675,-0.881 1.2,-1.181c0.525,-0.3 1.144,-0.45 1.894,-0.45l-0.019,0.056Zm2.812,0.188l-0.019,0.394l-1.688,0l0,-0.394l1.706,0Z" style="fill-rule:nonzero;"/></g><g><path d="M170.859,8.964l0,13.069l-1.744,0l0,-13.069l1.744,0Zm4.744,-0.075l0,0.638l-11.231,0l0,-0.638l11.231,0Zm0,0.562l0,1.763l-0.188,-0.019l0,-0.281c0,-0.394 -0.131,-0.731 -0.394,-0.994c-0.263,-0.262 -0.581,-0.394 -0.975,-0.412l0,-0.056l1.556,0Zm0,-0.9l0,0.544l-2.287,-0.206c0.281,0 0.562,-0.019 0.881,-0.056c0.3,-0.037 0.581,-0.075 0.844,-0.131c0.263,-0.056 0.45,-0.094 0.562,-0.15Zm-6.431,12.113l0,1.369l-1.5,0l0,-0.188l0.244,0c0.319,0 0.6,-0.113 0.844,-0.356c0.225,-0.225 0.356,-0.506 0.356,-0.825l0.056,0Zm1.631,0l0.056,0c0.019,0.319 0.131,0.6 0.375,0.825c0.225,0.225 0.506,0.337 0.825,0.337l0.244,0l0,0.188l-1.5,0l0,-1.369l0,0.019Zm-4.875,-11.194l0,0.056c-0.413,0.019 -0.731,0.15 -0.994,0.412c-0.263,0.263 -0.375,0.581 -0.375,0.994l0,0.281l-0.188,0.019l0,-1.744l1.556,0l0,-0.019Zm-1.556,-0.919c0.131,0.056 0.319,0.094 0.562,0.15c0.262,0.056 0.544,0.094 0.862,0.131c0.319,0.037 0.6,0.056 0.863,0.056l-2.287,0.206l0,-0.544Z" style="fill-rule:nonzero;"/></g><g><path d="M179.822,8.907l0,8.25c0,0.9 0.169,1.688 0.487,2.363c0.319,0.675 0.769,1.2 1.35,1.575c0.581,0.375 1.256,0.562 2.025,0.562c0.806,0 1.519,-0.169 2.119,-0.525c0.6,-0.356 1.069,-0.844 1.406,-1.481c0.338,-0.638 0.506,-1.369 0.506,-2.231l0,-8.494l1.031,0l0,8.456c0,0.994 -0.206,1.856 -0.637,2.587c-0.431,0.731 -1.031,1.312 -1.8,1.725c-0.769,0.413 -1.688,0.619 -2.737,0.619c-1.144,0 -2.119,-0.206 -2.944,-0.619c-0.825,-0.413 -1.463,-0.975 -1.894,-1.706c-0.431,-0.731 -0.656,-1.594 -0.656,-2.587l0,-8.475l1.744,0l0,-0.019Zm-1.688,0l0,1.125l-0.056,0c0,-0.281 -0.094,-0.506 -0.281,-0.675c-0.188,-0.169 -0.431,-0.262 -0.694,-0.262l-0.3,0l0,-0.188l1.35,0l-0.019,0Zm2.981,0l0,0.188l-0.3,0c-0.281,0 -0.506,0.094 -0.713,0.262c-0.188,0.169 -0.3,0.394 -0.3,0.675l-0.037,0l0,-1.125l1.35,0Zm6.656,0l0,1.125l-0.056,0c0,-0.281 -0.094,-0.506 -0.3,-0.675c-0.188,-0.169 -0.431,-0.262 -0.694,-0.262l-0.3,0l0,-0.188l1.35,0Zm2.269,0l0,0.188l-0.3,0c-0.281,0 -0.506,0.094 -0.694,0.262c-0.188,0.169 -0.3,0.394 -0.3,0.675l-0.037,0l0,-1.125l1.331,0Z" style="fill-rule:nonzero;"/></g><g><path d="M198.141,8.907c1.387,0 2.587,0.263 3.619,0.806c1.031,0.544 1.838,1.294 2.4,2.287c0.581,0.994 0.863,2.137 0.863,3.469c0,1.331 -0.281,2.475 -0.863,3.469c-0.581,0.975 -1.369,1.744 -2.4,2.288c-1.031,0.544 -2.231,0.806 -3.619,0.806l-4.163,0l-0.019,-0.637l4.106,0c1.013,0 1.894,-0.244 2.644,-0.731c0.75,-0.488 1.331,-1.181 1.744,-2.062c0.412,-0.881 0.619,-1.931 0.619,-3.131c0,-1.2 -0.206,-2.231 -0.619,-3.131c-0.413,-0.881 -0.994,-1.575 -1.744,-2.062c-0.75,-0.488 -1.631,-0.731 -2.644,-0.731l-4.294,0l0,-0.638l4.369,0Zm-3.319,0l0,13.125l-1.744,0l0,-13.125l1.744,0Zm-1.688,11.756l0,1.369l-1.5,0l0,-0.188l0.244,0c0.319,0 0.6,-0.113 0.825,-0.356c0.225,-0.225 0.356,-0.506 0.356,-0.825l0.075,0Zm0,-10.388l-0.056,0c0,-0.319 -0.113,-0.6 -0.356,-0.825c-0.244,-0.225 -0.525,-0.356 -0.844,-0.356l-0.225,0l-0.019,-0.188l1.5,0l0,1.369Z" style="fill-rule:nonzero;"/></g><g><path d="M209.709,8.907l0,13.125l-1.744,0l0,-13.125l1.744,0Zm-1.688,11.756l0,1.369l-1.5,0l0,-0.188l0.244,0c0.319,0 0.6,-0.113 0.825,-0.356c0.225,-0.225 0.356,-0.506 0.356,-0.825l0.075,0Zm0.019,-10.388l-0.075,0c-0.019,-0.319 -0.131,-0.6 -0.356,-0.825c-0.225,-0.225 -0.506,-0.356 -0.825,-0.356l-0.244,0l0,-0.188l1.5,0l0,1.369Zm1.613,10.388l0.056,0c0.019,0.319 0.131,0.6 0.375,0.825c0.225,0.225 0.506,0.337 0.844,0.337l0.244,0l0,0.188l-1.5,0l0,-1.369l-0.019,0.019Zm0,-10.388l0,-1.369l1.5,0l0,0.188l-0.244,0c-0.319,0 -0.6,0.112 -0.844,0.356c-0.225,0.225 -0.356,0.506 -0.375,0.825l-0.056,0l0.019,-0Z" style="fill-rule:nonzero;"/></g><g><path d="M219.891,8.645c1.387,0 2.606,0.281 3.656,0.844c1.05,0.563 1.856,1.35 2.438,2.381c0.581,1.031 0.862,2.231 0.862,3.6c0,1.369 -0.281,2.569 -0.862,3.6c-0.581,1.031 -1.388,1.819 -2.438,2.381c-1.05,0.562 -2.269,0.844 -3.656,0.844c-1.388,0 -2.588,-0.281 -3.638,-0.844c-1.05,-0.562 -1.856,-1.35 -2.438,-2.381c-0.581,-1.031 -0.862,-2.231 -0.862,-3.6c0,-1.369 0.281,-2.569 0.862,-3.6c0.581,-1.031 1.388,-1.819 2.438,-2.381c1.05,-0.562 2.25,-0.844 3.638,-0.844Zm0,13.012c1.012,0 1.875,-0.262 2.625,-0.769c0.75,-0.506 1.312,-1.238 1.725,-2.156c0.412,-0.919 0.619,-2.006 0.619,-3.262c0,-1.256 -0.206,-2.325 -0.619,-3.263c-0.412,-0.919 -0.994,-1.65 -1.725,-2.156c-0.75,-0.506 -1.613,-0.769 -2.625,-0.769c-0.994,0 -1.856,0.263 -2.606,0.769c-0.75,0.506 -1.312,1.238 -1.725,2.156c-0.412,0.919 -0.619,2.006 -0.619,3.263c0,1.256 0.206,2.325 0.619,3.262c0.412,0.919 0.994,1.65 1.725,2.156c0.75,0.506 1.613,0.769 2.606,0.769Z" style="fill-rule:nonzero;"/></g><g><path d="M104.477,26.61c0.133,0 0.258,0.008 0.383,0.016c0.125,0.008 0.234,0.023 0.336,0.039c0.102,0.016 0.195,0.031 0.273,0.047c0.078,0.016 0.141,0.031 0.18,0.047l-0.031,0.828l-0.086,0c0,-0.219 -0.078,-0.398 -0.227,-0.523c-0.156,-0.133 -0.383,-0.195 -0.695,-0.195c-0.258,0 -0.477,0.062 -0.648,0.195c-0.172,0.133 -0.266,0.297 -0.266,0.5c0,0.078 0.008,0.148 0.039,0.227c0.023,0.07 0.07,0.141 0.125,0.203c0.055,0.062 0.125,0.125 0.211,0.195l1.461,1.062c0.148,0.102 0.258,0.234 0.344,0.406c0.078,0.172 0.117,0.352 0.117,0.539c0,0.25 -0.07,0.477 -0.203,0.672c-0.133,0.203 -0.32,0.352 -0.547,0.469c-0.227,0.109 -0.492,0.172 -0.781,0.172c-0.172,0 -0.352,-0.016 -0.531,-0.047c-0.18,-0.031 -0.344,-0.07 -0.492,-0.133c-0.148,-0.055 -0.266,-0.125 -0.359,-0.211c-0.023,-0.086 -0.031,-0.187 -0.031,-0.312c0,-0.125 0.016,-0.25 0.039,-0.383c0.023,-0.133 0.062,-0.25 0.102,-0.352l0.086,0c-0.016,0.234 0.016,0.437 0.109,0.617c0.094,0.18 0.227,0.312 0.406,0.406c0.18,0.094 0.391,0.141 0.641,0.141c0.32,-0.008 0.562,-0.086 0.734,-0.234c0.172,-0.148 0.258,-0.344 0.258,-0.578c0,-0.133 -0.031,-0.25 -0.094,-0.352c-0.062,-0.102 -0.156,-0.203 -0.289,-0.297l-1.414,-1.039c-0.187,-0.125 -0.312,-0.281 -0.383,-0.453c-0.07,-0.18 -0.102,-0.352 -0.094,-0.531c0.008,-0.227 0.07,-0.422 0.187,-0.602c0.117,-0.172 0.273,-0.312 0.477,-0.406c0.195,-0.102 0.422,-0.148 0.664,-0.148l0,0.016Zm1.164,0.07l0,0.141l-0.648,0l0,-0.141l0.648,0Z" style="fill-rule:nonzero;"/></g><g><path d="M108.062,26.72l0,4.687l-0.703,0l0,-4.687l0.703,0Zm-0.68,4.187l0,0.5l-0.633,0l0,-0.078l0.102,0c0.141,0 0.258,-0.039 0.352,-0.125c0.094,-0.086 0.148,-0.18 0.156,-0.297l0.023,0Zm0.656,0l0.023,0c0.008,0.117 0.055,0.211 0.156,0.297c0.094,0.086 0.211,0.125 0.352,0.125l0.102,0l0.008,0.078l-0.633,0l0,-0.5l-0.008,0Zm0,-3.695l0,-0.5l0.633,0l-0.008,0.078l-0.094,0c-0.141,0 -0.258,0.039 -0.352,0.117c-0.094,0.078 -0.148,0.18 -0.156,0.297l-0.023,0l0,0.008Zm-0.656,0l-0.023,0c-0.008,-0.117 -0.055,-0.219 -0.156,-0.297c-0.094,-0.078 -0.211,-0.117 -0.352,-0.117l-0.102,0l0,-0.078l0.633,0l0,0.5l0,-0.008Z" style="fill-rule:nonzero;"/></g><g><path d="M109.836,26.603l4.414,4.062l0.078,0.844l-4.414,-4.078l-0.078,-0.828Zm0.023,4.32l0,0.484l-0.586,0l0,-0.078l0.133,0c0.117,0 0.219,-0.039 0.305,-0.117c0.086,-0.078 0.125,-0.172 0.125,-0.289l0.023,0Zm0.57,0c0,0.117 0.047,0.211 0.133,0.289c0.086,0.078 0.187,0.117 0.297,0.117l0.133,0l0,0.078l-0.586,0l0,-0.484l0.023,0Zm-0.586,-4.32l0.586,0.68l0.008,4.117l-0.594,0l0,-3.852c0,-0.266 -0.016,-0.492 -0.039,-0.672c-0.023,-0.18 -0.039,-0.273 -0.039,-0.273l0.078,0Zm4.492,0.117l0,3.82c0,0.172 0.008,0.328 0.016,0.477c0.008,0.148 0.023,0.266 0.039,0.359c0.016,0.086 0.023,0.133 0.023,0.133l-0.07,0l-0.586,-0.687l0,-4.102l0.586,0l-0.008,0Zm-0.023,0.484l0,-0.484l0.586,0l0,0.078l-0.133,0c-0.117,0 -0.211,0.039 -0.297,0.117c-0.086,0.078 -0.125,0.172 -0.133,0.289l-0.023,0Zm-0.562,0c-0.008,-0.117 -0.047,-0.211 -0.133,-0.289c-0.086,-0.078 -0.187,-0.117 -0.305,-0.117l-0.133,0l0,-0.078l0.586,0l0,0.484l-0.016,0Z" style="fill-rule:nonzero;"/></g><g><path d="M120.195,29.439l-0.031,1.109c-0.125,0.195 -0.289,0.367 -0.492,0.508c-0.203,0.148 -0.445,0.258 -0.711,0.336c-0.266,0.078 -0.562,0.117 -0.883,0.117c-0.547,-0.008 -1.016,-0.109 -1.414,-0.305c-0.398,-0.195 -0.703,-0.477 -0.922,-0.836c-0.211,-0.367 -0.32,-0.805 -0.32,-1.312c0,-0.508 0.109,-0.945 0.32,-1.312c0.211,-0.367 0.523,-0.648 0.922,-0.844c0.398,-0.195 0.875,-0.297 1.422,-0.297c0.336,0 0.664,0.039 0.984,0.117c0.32,0.078 0.594,0.187 0.82,0.32l0.117,1.148l-0.07,0c-0.117,-0.477 -0.344,-0.82 -0.664,-1.023c-0.328,-0.203 -0.711,-0.305 -1.164,-0.305c-0.398,0 -0.742,0.086 -1.023,0.266c-0.281,0.18 -0.5,0.43 -0.656,0.758c-0.148,0.328 -0.227,0.711 -0.227,1.156c0,0.445 0.078,0.828 0.227,1.156c0.156,0.328 0.367,0.578 0.656,0.758c0.281,0.18 0.617,0.273 1.008,0.281c0.383,0 0.719,-0.062 1.016,-0.187c0.289,-0.125 0.523,-0.32 0.703,-0.586c0.18,-0.266 0.289,-0.609 0.328,-1.039l0.07,0l-0.016,0.016Z" style="fill-rule:nonzero;"/></g><g><path d="M122.164,26.72l0,4.687l-0.711,0l0,-4.687l0.711,0Zm2.008,4.422l0.047,0.266l-2.078,0l0,-0.266l2.031,0Zm-0.336,-2.203l0,0.258l-1.695,0l0,-0.258l1.695,0Zm0.359,-2.219l0,0.266l-2.047,0l0,-0.266l2.047,0Zm0.437,3.461l-0.391,1.227l-1.242,0l0.258,-0.266c0.25,0 0.453,-0.039 0.617,-0.125c0.164,-0.078 0.297,-0.195 0.406,-0.336c0.109,-0.141 0.195,-0.312 0.266,-0.5l0.086,0Zm-0.789,-1l0,0.523l-0.086,0l0,-0.086c0,-0.117 -0.039,-0.219 -0.109,-0.297c-0.07,-0.086 -0.172,-0.125 -0.305,-0.125l0,-0.016l0.5,0Zm0,-0.758l0,0.523l-0.5,0l0,-0.016c0.133,0 0.234,-0.039 0.305,-0.125c0.07,-0.086 0.109,-0.18 0.109,-0.297l0,-0.086l0.086,0Zm0.359,-1.469l0,0.633l-0.086,0l0,-0.102c0,-0.148 -0.047,-0.273 -0.133,-0.367c-0.086,-0.094 -0.211,-0.148 -0.367,-0.148l0,-0.023l0.578,0l0.008,0.008Zm0,-0.367l0,0.203l-0.867,-0.078c0.156,0 0.328,-0.016 0.5,-0.047c0.18,-0.031 0.297,-0.055 0.367,-0.078Zm-2.727,4.312l0.078,0.5l-0.648,0l0,-0.078l0.102,0c0.125,0 0.227,-0.039 0.312,-0.125c0.086,-0.086 0.125,-0.18 0.133,-0.297l0.023,0Zm0.008,-3.695l-0.023,0c-0.008,-0.117 -0.047,-0.219 -0.133,-0.297c-0.086,-0.078 -0.187,-0.117 -0.312,-0.117l-0.102,0l0,-0.078l0.648,0l-0.078,0.492Z" style="fill-rule:nonzero;"/></g><g><path d="M127.234,31.407l0,-0.078l-0.164,0c-0.117,0 -0.219,-0.039 -0.305,-0.125c-0.086,-0.078 -0.133,-0.18 -0.133,-0.289l0,-5.086l-0.078,0c-0.094,0.086 -0.187,0.164 -0.297,0.219c-0.109,0.062 -0.219,0.109 -0.328,0.141c-0.117,0.031 -0.227,0.062 -0.344,0.086c-0.117,0.023 -0.227,0.039 -0.328,0.055l0,0.078l0.266,0c0.125,0 0.227,0.031 0.289,0.102c0.07,0.07 0.102,0.172 0.102,0.312l0,4.086c0,0.117 -0.039,0.211 -0.125,0.297c-0.086,0.086 -0.187,0.125 -0.305,0.125l-0.164,0l-0.008,0.078l1.922,0Z" style="fill-rule:nonzero;"/></g><g><path d="M128.805,31.696l-0.023,-0.055c0.406,-0.117 0.75,-0.289 1.016,-0.516c0.273,-0.227 0.484,-0.492 0.648,-0.805c0.164,-0.305 0.273,-0.648 0.344,-1.008c0.07,-0.367 0.102,-0.75 0.102,-1.148c0,-0.422 -0.039,-0.789 -0.109,-1.094c-0.078,-0.305 -0.187,-0.539 -0.352,-0.703c-0.156,-0.164 -0.367,-0.242 -0.617,-0.242c-0.234,0 -0.422,0.07 -0.57,0.203c-0.148,0.133 -0.25,0.312 -0.32,0.523c-0.062,0.219 -0.094,0.453 -0.094,0.711c0.008,0.258 0.039,0.484 0.109,0.68c0.07,0.195 0.172,0.336 0.312,0.445c0.141,0.102 0.305,0.156 0.492,0.156c0.156,0.008 0.305,-0.023 0.445,-0.078c0.141,-0.055 0.266,-0.148 0.359,-0.266l0.039,0.07c-0.117,0.164 -0.266,0.297 -0.43,0.398c-0.172,0.102 -0.352,0.164 -0.539,0.195c-0.187,0.031 -0.375,0.023 -0.562,-0.023c-0.187,-0.047 -0.352,-0.125 -0.508,-0.25c-0.156,-0.125 -0.273,-0.281 -0.367,-0.484c-0.094,-0.203 -0.141,-0.445 -0.148,-0.734c-0.008,-0.367 0.062,-0.68 0.211,-0.953c0.148,-0.273 0.352,-0.484 0.617,-0.633c0.266,-0.156 0.586,-0.234 0.937,-0.234c0.586,-0.008 1.055,0.18 1.391,0.578c0.344,0.398 0.516,0.977 0.516,1.734c0,0.422 -0.055,0.844 -0.172,1.25c-0.117,0.414 -0.297,0.789 -0.539,1.125c-0.242,0.336 -0.547,0.609 -0.906,0.82c-0.367,0.211 -0.797,0.32 -1.297,0.336l0.016,0Z" style="fill-rule:nonzero;"/></g><g><path d="M132.797,27.345l-0.219,-0.992c0.109,-0.109 0.25,-0.195 0.422,-0.273c0.172,-0.078 0.352,-0.141 0.547,-0.187c0.195,-0.047 0.383,-0.07 0.562,-0.07c0.359,0 0.68,0.062 0.953,0.187c0.273,0.125 0.484,0.305 0.641,0.531c0.148,0.234 0.227,0.508 0.227,0.836c0,0.266 -0.055,0.523 -0.172,0.789c-0.117,0.266 -0.266,0.516 -0.445,0.766c-0.187,0.25 -0.383,0.484 -0.602,0.711c-0.219,0.227 -0.43,0.43 -0.633,0.625c-0.203,0.187 -0.391,0.359 -0.547,0.508l1.734,0c0.156,0 0.289,-0.023 0.391,-0.07c0.109,-0.047 0.203,-0.117 0.289,-0.227c0.086,-0.102 0.172,-0.234 0.266,-0.406l0.078,0l-0.398,1.32l-3.383,0l0,-0.078c0.187,-0.187 0.406,-0.406 0.633,-0.656c0.234,-0.25 0.469,-0.516 0.695,-0.797c0.234,-0.281 0.445,-0.562 0.641,-0.859c0.195,-0.289 0.352,-0.578 0.469,-0.859c0.117,-0.281 0.18,-0.539 0.18,-0.789c0,-0.406 -0.102,-0.727 -0.297,-0.953c-0.195,-0.234 -0.461,-0.344 -0.805,-0.328c-0.359,0.008 -0.641,0.117 -0.844,0.336c-0.203,0.211 -0.305,0.516 -0.297,0.914l-0.078,0l-0.008,0.023Z" style="fill-rule:nonzero;"/></g><g><path d="M139.937,25.673l0.031,0.055c-0.406,0.133 -0.75,0.312 -1.023,0.539c-0.273,0.227 -0.492,0.492 -0.648,0.805c-0.164,0.305 -0.273,0.641 -0.344,1.008c-0.07,0.367 -0.102,0.758 -0.102,1.172c0,0.398 0.039,0.75 0.117,1.047c0.078,0.297 0.195,0.531 0.359,0.695c0.164,0.164 0.367,0.25 0.617,0.25c0.242,0 0.43,-0.07 0.57,-0.203c0.141,-0.141 0.25,-0.312 0.312,-0.531c0.07,-0.219 0.102,-0.453 0.094,-0.695c-0.008,-0.266 -0.039,-0.492 -0.109,-0.68c-0.07,-0.187 -0.172,-0.328 -0.312,-0.43c-0.133,-0.102 -0.305,-0.156 -0.492,-0.164c-0.148,-0.008 -0.297,0.016 -0.445,0.078c-0.141,0.062 -0.266,0.148 -0.359,0.266l-0.047,-0.07c0.125,-0.164 0.266,-0.297 0.437,-0.398c0.172,-0.102 0.352,-0.172 0.539,-0.203c0.187,-0.031 0.375,-0.031 0.555,0.016c0.18,0.039 0.352,0.125 0.5,0.242c0.148,0.117 0.273,0.281 0.375,0.492c0.094,0.203 0.148,0.461 0.164,0.758c0.016,0.312 -0.047,0.602 -0.18,0.883c-0.133,0.273 -0.336,0.5 -0.602,0.672c-0.266,0.172 -0.594,0.266 -0.984,0.273c-0.383,0.008 -0.719,-0.078 -1.008,-0.258c-0.289,-0.18 -0.516,-0.437 -0.672,-0.789c-0.156,-0.344 -0.234,-0.766 -0.234,-1.266c0.008,-0.437 0.062,-0.859 0.187,-1.273c0.117,-0.414 0.297,-0.781 0.539,-1.117c0.242,-0.328 0.539,-0.602 0.906,-0.805c0.367,-0.211 0.797,-0.32 1.289,-0.352l-0.031,-0.016Z" style="fill-rule:nonzero;"/></g></g></svg>